<?xml version="1.0" encoding="iso-8859-1"?>
<!-- Uploaded to: SVG Repo, www.svgrepo.com, Generator: SVG Repo Mixer Tools -->
<svg height="800px" width="800px" version="1.1" id="Layer_1" xmlns="http://www.w3.org/2000/svg" xmlns:xlink="http://www.w3.org/1999/xlink" 
	 viewBox="0 0 480 480" xml:space="preserve">
<g transform="translate(952.64 -540.36)">
	<path style="fill:#3B3C3D;" d="M-952.64,780.36c0,132.548,107.452,240,240,240s240-107.452,240-240s-107.452-240-240-240
		S-952.64,647.812-952.64,780.36L-952.64,780.36z"/>
	<path style="fill:#FC987A;" d="M-712.641,540.361c-124.474,0.082-228.227,95.315-238.949,219.327
		c-0.229,2.455-0.427,4.913-0.581,7.374c-0.279,4.428-0.436,8.863-0.469,13.299c0.022,7.519,0.398,15.033,1.126,22.517
		c0.082,0.854,0.151,1.71,0.242,2.563c0.729,6.749,1.743,13.464,3.041,20.126c0.309,1.592,0.619,3.183,0.96,4.769l1.171,1.058
		l467.365,0.09c0.161-0.234,0.297-0.486,0.446-0.729c2.077-9.498,3.575-19.113,4.486-28.792c0.26-2.506,0.481-5.01,0.663-7.512
		c0.305-4.691,0.472-9.39,0.5-14.091C-472.64,647.812-580.092,540.361-712.641,540.361
		C-712.64,540.361-712.641,540.361-712.641,540.361L-712.641,540.361z"/>
	<g>
		<path style="fill:#3B3C3D;" d="M-791.591,673.42c-11.688,0-21.098,3.795-21.098,8.51v34.576h-17.13l-22.243-28.994l-35.896,46.666
			h-27.421c-2.647,0-4.777,5.448-4.777,12.214c0,2.14,0.213,4.146,0.588,5.892h-31.126c-1.198,9.313-1.848,18.689-1.947,28.078
			c0.1,20.354,2.789,40.612,8.002,60.287h365.366c6.043,0,10.908-5.448,10.908-12.214s-4.865-12.214-10.908-12.214h-40.362
			c0.044-0.446,0.07-0.899,0.07-1.358c0-6.766-4.865-12.212-10.908-12.212h-17.337l-28.447-36.982v-1.172
			c0-6.766-4.865-12.214-10.908-12.214h-34.74v-25.928c0-5.457-2.252-9.849-5.051-9.849h-14.452V681.93
			c0-4.715-9.408-8.51-21.096-8.51H-791.591z"/>
		<path style="fill:#3B3C3D;" d="M-528.689,802.954c-1.362,0-2.457,3.678-2.457,8.245v14.111c-0.337-0.078-0.707-0.122-1.098-0.122
			c-0.17,0-0.337,0.01-0.498,0.026c0.117-0.641,0.19-1.371,0.19-2.16v-9.23c0-2.465-0.65-4.449-1.458-4.449
			s-1.458,1.983-1.458,4.449v7.5c-0.14-0.108-0.308-0.197-0.512-0.258c0.045-0.244,0.074-0.501,0.074-0.773v-5.06
			c0-1.352-0.601-2.44-1.347-2.44s-1.347,1.088-1.347,2.44v5.06c0,1.318,0.573,2.377,1.292,2.43
			c0.206,0.064,0.429,0.108,0.676,0.108c0.479,0,0.886-0.143,1.163-0.356v0.578c0,1.353,0.2,2.547,0.51,3.362
			c-0.025,0.081-0.047,0.163-0.047,0.248c0,0.816,1.232,1.472,2.762,1.472c0.391,0,0.762-0.042,1.098-0.12v0.283
			c0,4.567,1.095,8.243,2.457,8.243c1.362,0,2.459-3.676,2.459-8.243V825.5c0.659,0.276,1.471,0.444,2.363,0.444
			c1.844,0,3.37-0.7,3.802-1.647c0.939-0.214,1.673-2.118,1.673-4.478v-1.925c0.239,0.345,0.651,0.586,1.145,0.586
			c0.239,0,0.454-0.069,0.649-0.163c0.676-0.094,1.202-0.825,1.202-1.728v-3.621c0-0.968-0.601-1.748-1.347-1.748
			s-1.347,0.78-1.347,1.748v3.393c-0.123,0.087-0.221,0.19-0.303,0.309v-6.226c0-2.504-0.823-4.52-1.845-4.52
			s-1.845,2.015-1.845,4.52v8.249c-0.151-0.163-0.368-0.297-0.645-0.379c0.045-0.244,0.074-0.5,0.074-0.773v-5.062
			c0-1.352-0.601-2.44-1.347-2.44s-1.347,1.088-1.347,2.44v5.062c0,1.319,0.574,2.379,1.294,2.43
			c0.205,0.064,0.428,0.108,0.674,0.108c0.565,0,1.036-0.197,1.296-0.478v0.218c0,0.749,0.081,1.444,0.211,2.064
			c-0.586-0.192-1.263-0.311-1.996-0.311c-0.893,0-1.704,0.17-2.363,0.446v-10.82C-526.23,806.632-527.327,802.954-528.689,802.954
			L-528.689,802.954z M-494.748,815.604c-0.725,0-1.31,1.958-1.31,4.39v7.513c-0.179-0.041-0.376-0.065-0.584-0.065
			c-0.099,0-0.184,0.02-0.278,0.029c0.066-0.349,0.113-0.732,0.113-1.166v-4.915c0-1.313-0.346-2.369-0.776-2.369
			s-0.776,1.056-0.776,2.369v3.995c-0.077-0.059-0.168-0.107-0.28-0.14c0.024-0.131,0.045-0.265,0.045-0.411v-2.695
			c0-0.72-0.318-1.297-0.715-1.297s-0.717,0.578-0.717,1.297v2.695c0,0.429,0.121,0.79,0.297,1.026
			c0.014,0.023,0.034,0.043,0.053,0.065c0.1,0.111,0.211,0.193,0.336,0.202c0.11,0.034,0.229,0.059,0.362,0.059
			c0.255,0,0.472-0.077,0.62-0.191v0.309c0,0.719,0.109,1.339,0.274,1.773c-0.017,0.048-0.027,0.096-0.027,0.147
			c0,0.435,0.655,0.784,1.47,0.784c0.208,0,0.405-0.024,0.584-0.065v0.151c0,2.432,0.584,4.39,1.31,4.39s1.31-1.958,1.31-4.39
			v-1.508c0.353,0.151,0.776,0.256,1.259,0.256c0.982,0,1.796-0.372,2.025-0.877c0.499-0.116,0.889-1.129,0.889-2.385v-1.026
			c0.127,0.184,0.346,0.313,0.61,0.313c0.141,0,0.266-0.043,0.377-0.104c0.343-0.07,0.608-0.437,0.608-0.902v-1.929
			c0-0.515-0.318-0.93-0.715-0.93c-0.397,0-0.717,0.415-0.717,0.93v1.807c-0.066,0.046-0.118,0.101-0.162,0.165v-3.316
			c0-1.333-0.439-2.406-0.983-2.406s-0.981,1.073-0.981,2.406v4.392c-0.082-0.088-0.2-0.159-0.35-0.202
			c0.024-0.13,0.045-0.263,0.045-0.409v-2.695c0-0.72-0.32-1.299-0.717-1.299c-0.397,0-0.715,0.58-0.715,1.299v2.695
			c0,0.428,0.12,0.788,0.295,1.024c0.013,0.023,0.033,0.042,0.051,0.063c0.102,0.114,0.214,0.198,0.342,0.206
			c0.109,0.034,0.229,0.057,0.36,0.057c0.3,0,0.551-0.104,0.69-0.254v0.116c0,0.414,0.053,0.783,0.127,1.122
			c-0.319-0.109-0.673-0.189-1.077-0.189c-0.483,0-0.905,0.104-1.259,0.256v-5.78C-493.438,817.562-494.023,815.604-494.748,815.604
			L-494.748,815.604z"/>
	</g>
	<g>
		<path style="fill:#FC987A;" d="M-828.493,779.993c-4.639,0-8.373,12.525-8.373,28.082v48.061c-1.146-0.264-2.41-0.411-3.741-0.411
			c-0.572,0-1.128,0.031-1.671,0.083c0.395-2.176,0.622-4.679,0.622-7.352v-31.44c0-8.398-2.214-15.159-4.967-15.159
			c-2.752,0-4.969,6.761-4.969,15.159v25.491c-0.475-0.354-1.063-0.642-1.743-0.841c0.151-0.826,0.25-1.693,0.25-2.613v-17.239
			c0-4.605-2.044-8.312-4.583-8.312s-4.585,3.707-4.585,8.312v17.239c0,4.477,1.935,8.094,4.376,8.292
			c0.701,0.218,1.482,0.354,2.324,0.354c1.605,0,3.017-0.456,3.962-1.16v1.917c0,4.593,0.665,8.686,1.716,11.461
			c-0.084,0.27-0.137,0.546-0.137,0.83c0,2.781,4.194,5.019,9.405,5.019c1.331,0,2.595-0.147,3.741-0.411v0.963
			c0,14.201,3.112,25.869,7.183,27.797c-2.517,3.151-5.779,8.064-9.247,14.095l-0.44,0.765c-0.052-0.873-0.173-1.722-0.373-2.493
			c-0.782-3.015-2.43-3.669-3.696-1.469c-0.132,0.229-0.247,0.49-0.36,0.759c-1.422,1.585-3.373,4.407-5.469,8.052l-0.872,1.516
			c0.178-1.103,0.172-2.28-0.068-3.208c-0.126-0.487-0.304-0.831-0.508-1.064c-0.455-1.259-2.393,0.486-4.431,4.03l-7.846,13.643
			c-2.095,3.644-3.475,7.76-3.094,9.23c0.381,1.469,2.375-0.282,4.47-3.926l7.846-13.643c0.418-0.727,0.798-1.471,1.151-2.212
			c0.193,0.235,0.413,0.347,0.645,0.342l-11.6,20.172c-3.822,6.646-6.566,13.279-6.153,14.872s3.823-2.476,7.644-9.122l14.305-24.88
			c1.225-2.13,2.319-4.241,3.254-6.202c0.059,0.362,0.126,0.718,0.213,1.056c0.2,0.771,0.456,1.382,0.749,1.836l-21.872,38.037
			c-1.437,2.499-2.764,4.965-4.009,7.368c1.708,1.544,3.439,3.064,5.191,4.559c0.443-0.746,0.878-1.453,1.329-2.237l16.772-29.165
			c-0.091,2.041,0.062,4.098,0.518,5.856c0.373,1.438,0.893,2.478,1.487,3.116c-1.025,1.413-2.138,3.119-3.293,5.129l-0.307,0.535
			c0.288-1.255,0.329-2.694,0.045-3.788c-0.126-0.487-0.305-0.833-0.51-1.065c-0.457-1.254-2.394,0.49-4.431,4.032l-7.844,13.643
			c-0.994,1.729-1.818,3.556-2.379,5.164c0.851,0.674,1.706,1.343,2.566,2.005c0.386-0.553,0.783-1.161,1.188-1.866l7.844-13.643
			c0.419-0.728,0.798-1.473,1.151-2.214c0.261,0.32,0.571,0.419,0.893,0.295l-10.328,17.962c1.421,1.041,2.854,2.066,4.298,3.075
			l4.761-8.278c-0.132,0.463-0.228,0.929-0.295,1.384l-4.11,7.148c1.04,0.756,2.085,1.504,3.137,2.243l2.731-4.75
			c1.374-2.389,2.232-5.328,2.076-6.938c0.058-0.678,0.037-1.307-0.092-1.803c-0.247-0.952-0.803-1.189-1.44-0.773l2.932-5.097
			c3.678-6.395,6.292-13.057,6.114-15.454c1.223-3.401,1.517-8.244,0.582-11.848c-0.454-1.752-1.125-2.917-1.886-3.474l4.325-7.523
			c6.563-11.412,11.448-22.605,11.573-26.319c2.799-4.535,4.726-14.104,4.726-25.263v-9.507c2.24,0.934,5.019,1.494,8.049,1.494
			c6.238,0,11.439-2.346,12.949-5.54c3.204-0.72,5.698-7.28,5.698-15.326v-6.442c0.824,1.13,2.259,1.879,3.905,1.879
			c0.826,0,1.59-0.205,2.261-0.535c2.28-0.349,4.038-2.848,4.038-5.903v-12.34c0-3.296-2.046-5.951-4.585-5.951
			s-4.583,2.655-4.583,5.951v11.502c-0.403,0.28-0.758,0.61-1.036,0.991v-21.088c0-8.53-2.803-15.399-6.284-15.399
			s-6.282,6.868-6.282,15.399v28.023c-0.519-0.538-1.28-0.97-2.203-1.24c0.151-0.826,0.252-1.693,0.252-2.613v-17.239
			c0-4.605-2.044-8.312-4.583-8.312s-4.585,3.707-4.585,8.312v17.239c0,4.474,1.933,8.091,4.372,8.292
			c0.702,0.219,1.484,0.354,2.328,0.354c1.892,0,3.522-0.627,4.419-1.557v0.676c0,2.525,0.25,4.896,0.686,6.995
			c-1.986-0.645-4.292-1.02-6.767-1.02c-3.03,0-5.809,0.56-8.049,1.494v-36.832C-820.118,792.518-823.854,779.993-828.493,779.993
			L-828.493,779.993z"/>
		<path style="fill:#FC987A;" d="M-919.586,801.521c-1.492,0-2.693,4.03-2.693,9.035v15.461c-0.369-0.085-0.775-0.134-1.204-0.134
			c-0.187,0-0.368,0.012-0.545,0.029c0.129-0.703,0.209-1.501,0.209-2.367v-10.114c0-2.701-0.713-4.877-1.599-4.877
			s-1.599,2.176-1.599,4.877v8.2c-0.152-0.113-0.346-0.201-0.563-0.265c0.049-0.267,0.084-0.548,0.084-0.845v-5.546
			c0-1.481-0.659-2.674-1.476-2.674s-1.474,1.192-1.474,2.674v5.546c0,1.443,0.625,2.603,1.413,2.662
			c0.225,0.07,0.47,0.12,0.741,0.12c0.516,0,0.971-0.147,1.274-0.373v0.617c0,1.483,0.219,2.791,0.559,3.684
			c-0.028,0.088-0.051,0.177-0.051,0.269c0,0.895,1.349,1.614,3.026,1.614c0.429,0,0.835-0.047,1.204-0.132v0.311
			c0,5.005,1.201,9.033,2.693,9.033c1.492,0,2.693-4.029,2.693-9.033v-3.067c0.722,0.303,1.612,0.488,2.59,0.488
			c2.02,0,3.694-0.766,4.167-1.805c1.029-0.236,1.831-2.322,1.831-4.907v-2.074c0.265,0.364,0.727,0.605,1.257,0.605
			c0.276,0,0.531-0.069,0.753-0.183c0.72-0.127,1.274-0.916,1.274-1.887v-3.971c0-1.06-0.659-1.913-1.476-1.913
			s-1.474,0.852-1.474,1.913v3.702c-0.13,0.09-0.245,0.195-0.334,0.318v-6.784c0-2.744-0.901-4.954-2.021-4.954
			s-2.021,2.21-2.021,4.954v9.015c-0.166-0.172-0.414-0.306-0.71-0.393c0.049-0.267,0.082-0.549,0.082-0.847v-5.546
			c0-1.481-0.659-2.674-1.476-2.674s-1.474,1.192-1.474,2.674v5.546c0,1.447,0.628,2.611,1.419,2.664
			c0.224,0.069,0.468,0.118,0.737,0.118c0.608,0,1.132-0.202,1.421-0.501v0.218c0,0.82,0.088,1.581,0.231,2.261
			c-0.643-0.211-1.384-0.338-2.187-0.338c-0.978,0-1.868,0.185-2.59,0.488v-11.856
			C-916.892,805.552-918.093,801.521-919.586,801.521L-919.586,801.521z"/>
		<path style="fill:#FC987A;" d="M-716.112,810.084c-1.079,0-1.949,2.912-1.949,6.531v11.18c-0.267-0.062-0.56-0.098-0.87-0.098
			c-0.142,0-0.265,0.03-0.399,0.043c0.095-0.513,0.154-1.099,0.154-1.734v-7.311c0-1.953-0.515-3.527-1.155-3.527
			c-0.64,0-1.155,1.574-1.155,3.527v5.941c-0.114-0.087-0.248-0.16-0.414-0.208c0.036-0.194,0.067-0.391,0.067-0.607v-4.01
			c0-1.071-0.475-1.932-1.065-1.932s-1.067,0.862-1.067,1.932v4.01c0,1.044,0.454,1.883,1.024,1.925
			c0.163,0.05,0.34,0.086,0.536,0.086c0.379,0,0.701-0.115,0.921-0.283v0.458c0,1.07,0.157,2.014,0.403,2.66
			c-0.021,0.065-0.035,0.131-0.035,0.199c0,0.647,0.975,1.168,2.187,1.168c0.31,0,0.603-0.035,0.87-0.096v0.224
			c0,3.618,0.87,6.533,1.949,6.533s1.947-2.914,1.947-6.533v-2.216c0.522,0.219,1.165,0.352,1.872,0.352
			c1.46,0,2.67-0.553,3.012-1.303c0.744-0.17,1.323-1.679,1.323-3.548v-1.529c0.189,0.275,0.516,0.468,0.909,0.468
			c0.19,0,0.359-0.053,0.514-0.128c0.535-0.075,0.952-0.655,0.952-1.37v-2.868c0-0.767-0.477-1.384-1.067-1.384
			s-1.065,0.617-1.065,1.384v2.687c-0.098,0.07-0.177,0.152-0.242,0.248v-4.934c0-1.984-0.651-3.582-1.46-3.582
			s-1.462,1.598-1.462,3.582v6.534c-0.122-0.132-0.297-0.242-0.522-0.307c0.036-0.193,0.068-0.392,0.068-0.607v-4.008
			c0-1.071-0.475-1.932-1.065-1.932s-1.067,0.862-1.067,1.932v4.008c0,1.045,0.455,1.887,1.026,1.927
			c0.162,0.05,0.337,0.084,0.532,0.084c0.448,0,0.822-0.157,1.028-0.379v0.175c0,0.594,0.065,1.144,0.168,1.636
			c-0.465-0.152-1-0.246-1.581-0.246c-0.707,0-1.351,0.133-1.872,0.352v-8.571C-714.165,812.997-715.033,810.084-716.112,810.084
			L-716.112,810.084z"/>
	</g>
	
		<radialGradient id="SVGID_1_" cx="-1552.1234" cy="955.3475" r="36.5729" gradientTransform="matrix(1.0007 0 0 -0.9298 954.0414 1482.4424)" gradientUnits="userSpaceOnUse">
		<stop  offset="0" style="stop-color:#FCD116"/>
		<stop  offset="1" style="stop-color:#FCD116;stop-opacity:0"/>
	</radialGradient>
	<path style="fill:url(#SVGID_1_);" d="M-617.979,560.116c-11.022,6.613-17.773,18.519-17.788,31.373
		c0,20.236,16.405,36.64,36.64,36.64c19.577-0.024,35.677-15.433,36.558-34.99C-579.469,579.688-598.107,568.58-617.979,560.116z"/>
	<path style="fill:#3B3C3D;" d="M-646.277,608.482l12.552,7.777c-4.429,2.418-7.49,5.826-8.602,9.576l12.03-7.453l5.139,3.185
		c-0.495-1.658-1.376-3.262-2.607-4.751l6.558-4.063c-3.038,0.2-6.017,0.818-8.756,1.816
		C-634.029,611.097-639.949,608.889-646.277,608.482z M-625.158,621.566l21.121-13.085
		C-614.382,609.144-623.09,614.539-625.158,621.566z M-642.327,625.834c-2.07-7.026-10.778-12.42-21.121-13.083L-642.327,625.834z"
		/>
</g>
</svg>